HIERARCHY
ROOT Hips
{
	OFFSET -14.64140 90.27770 -84.91600
	CHANNELS 6 Xposition Yposition Zposition Zrotation Xrotation Yrotation
	JOINT Spine
	{
		OFFSET 0.00000 13.20850 -1.60436
		CHANNELS 3 Zrotation Xrotation Yrotation
		JOINT Spine1
		{
			OFFSET 0.00000 8.61716 0.00000
			CHANNELS 3 Zrotation Xrotation Yrotation
			JOINT Spine2
			{
				OFFSET 0.00000 8.61717 0.00000
				CHANNELS 3 Zrotation Xrotation Yrotation
				JOINT Spine3
				{
					OFFSET 0.00000 8.61717 0.00000
					CHANNELS 3 Zrotation Xrotation Yrotation
					JOINT Neck
					{
						OFFSET 0.00000 11.07920 1.10792
						CHANNELS 3 Zrotation Xrotation Yrotation
						JOINT Neck1
						{
							OFFSET 0.00000 7.08032 0.00000
							CHANNELS 3 Zrotation Xrotation Yrotation
							JOINT Head
							{
								OFFSET 0.00000 7.08031 0.00000
								CHANNELS 3 Zrotation Xrotation Yrotation
								End site
								{
									OFFSET 0.00000 0.00000 0.00000
								}
							}
						}
					}
					JOINT RightShoulder
					{
						OFFSET -0.01000 7.91373 5.19711
						CHANNELS 3 Zrotation Xrotation Yrotation
						JOINT RightArm
						{
							OFFSET -18.41580 0.00000 0.00000
							CHANNELS 3 Zrotation Xrotation Yrotation
							JOINT RightForeArm
							{
								OFFSET -29.11090 0.00000 0.00000
								CHANNELS 3 Zrotation Xrotation Yrotation
								JOINT RightHand
								{
									OFFSET -24.65040 0.00000 0.00000
									CHANNELS 3 Zrotation Xrotation Yrotation
									JOINT RightHandThumb1
									{
										OFFSET -5.35114 -0.85590 3.97906
										CHANNELS 3 Zrotation Xrotation Yrotation
										JOINT RightHandThumb2
										{
											OFFSET -4.52789 0.00000 0.00000
											CHANNELS 3 Zrotation Xrotation Yrotation
											JOINT RightHandThumb3
											{
												OFFSET -2.46976 0.00000 0.00000
												CHANNELS 3 Zrotation Xrotation Yrotation
												End site
												{
													OFFSET 0.00000 0.00000 0.00000
												}
											}
										}
									}
									JOINT RightHandIndex1
									{
										OFFSET -14.26970 0.00000 2.88139
										CHANNELS 3 Zrotation Xrotation Yrotation
										JOINT RightHandIndex2
										{
											OFFSET -5.48836 0.00000 0.00000
											CHANNELS 3 Zrotation Xrotation Yrotation
											JOINT RightHandIndex3
											{
												OFFSET -3.01859 0.00000 0.00000
												CHANNELS 3 Zrotation Xrotation Yrotation
												End site
												{
													OFFSET 0.00000 0.00000 0.00000
												}
											}
										}
									}
									JOINT RightHandMiddle1
									{
										OFFSET -14.26970 0.00000 -0.09147
										CHANNELS 3 Zrotation Xrotation Yrotation
										JOINT RightHandMiddle2
										{
											OFFSET -6.17441 0.00000 0.00000
											CHANNELS 3 Zrotation Xrotation Yrotation
											JOINT RightHandMiddle3
											{
												OFFSET -3.56743 0.00000 0.00000
												CHANNELS 3 Zrotation Xrotation Yrotation
												End site
												{
													OFFSET 0.00000 0.00000 0.00000
												}
											}
										}
									}
									JOINT RightHandRing1
									{
										OFFSET -12.69180 0.00000 -3.06433
										CHANNELS 3 Zrotation Xrotation Yrotation
										JOINT RightHandRing2
										{
											OFFSET -5.62556 0.00000 0.00000
											CHANNELS 3 Zrotation Xrotation Yrotation
											JOINT RightHandRing3
											{
												OFFSET -3.56744 0.00000 0.00000
												CHANNELS 3 Zrotation Xrotation Yrotation
												End site
												{
													OFFSET 0.00000 0.00000 0.00000
												}
											}
										}
									}
									JOINT RightHandPinky1
									{
										OFFSET -11.11390 0.00000 -6.03719
										CHANNELS 3 Zrotation Xrotation Yrotation
										JOINT RightHandPinky2
										{
											OFFSET -4.52789 0.00000 0.00000
											CHANNELS 3 Zrotation Xrotation Yrotation
											JOINT RightHandPinky3
											{
												OFFSET -2.46976 0.00000 0.00000
												CHANNELS 3 Zrotation Xrotation Yrotation
												End site
												{
													OFFSET 0.00000 0.00000 0.00000
												}
											}
										}
									}
								}
							}
						}
					}
					JOINT LeftShoulder
					{
						OFFSET 0.01000 7.91373 5.19711
						CHANNELS 3 Zrotation Xrotation Yrotation
						JOINT LeftArm
						{
							OFFSET 18.41580 0.00000 0.00000
							CHANNELS 3 Zrotation Xrotation Yrotation
							JOINT LeftForeArm
							{
								OFFSET 29.11090 0.00000 0.00000
								CHANNELS 3 Zrotation Xrotation Yrotation
								JOINT LeftHand
								{
									OFFSET 24.65040 0.00000 0.00000
									CHANNELS 3 Zrotation Xrotation Yrotation
									JOINT LeftHandThumb1
									{
										OFFSET 5.35114 -0.85590 3.97906
										CHANNELS 3 Zrotation Xrotation Yrotation
										JOINT LeftHandThumb2
										{
											OFFSET 4.52789 0.00000 0.00000
											CHANNELS 3 Zrotation Xrotation Yrotation
											JOINT LeftHandThumb3
											{
												OFFSET 2.46977 0.00000 0.00000
												CHANNELS 3 Zrotation Xrotation Yrotation
												End site
												{
													OFFSET 0.00000 0.00000 0.00000
												}
											}
										}
									}
									JOINT LeftHandIndex1
									{
										OFFSET 14.26970 0.00000 2.88139
										CHANNELS 3 Zrotation Xrotation Yrotation
										JOINT LeftHandIndex2
										{
											OFFSET 5.48836 0.00000 0.00000
											CHANNELS 3 Zrotation Xrotation Yrotation
											JOINT LeftHandIndex3
											{
												OFFSET 3.01859 0.00000 0.00000
												CHANNELS 3 Zrotation Xrotation Yrotation
												End site
												{
													OFFSET 0.00000 0.00000 0.00000
												}
											}
										}
									}
									JOINT LeftHandMiddle1
									{
										OFFSET 14.26970 0.00000 -0.09147
										CHANNELS 3 Zrotation Xrotation Yrotation
										JOINT LeftHandMiddle2
										{
											OFFSET 6.17440 0.00000 0.00000
											CHANNELS 3 Zrotation Xrotation Yrotation
											JOINT LeftHandMiddle3
											{
												OFFSET 3.56744 0.00000 0.00000
												CHANNELS 3 Zrotation Xrotation Yrotation
												End site
												{
													OFFSET 0.00000 0.00000 0.00000
												}
											}
										}
									}
									JOINT LeftHandRing1
									{
										OFFSET 12.69180 0.00000 -3.06433
										CHANNELS 3 Zrotation Xrotation Yrotation
										JOINT LeftHandRing2
										{
											OFFSET 5.62556 0.00000 0.00000
											CHANNELS 3 Zrotation Xrotation Yrotation
											JOINT LeftHandRing3
											{
												OFFSET 3.56744 0.00000 0.00000
												CHANNELS 3 Zrotation Xrotation Yrotation
												End site
												{
													OFFSET 0.00000 0.00000 0.00000
												}
											}
										}
									}
									JOINT LeftHandPinky1
									{
										OFFSET 11.11390 0.00000 -6.03719
										CHANNELS 3 Zrotation Xrotation Yrotation
										JOINT LeftHandPinky2
										{
											OFFSET 4.52789 0.00000 0.00000
											CHANNELS 3 Zrotation Xrotation Yrotation
											JOINT LeftHandPinky3
											{
												OFFSET 2.46976 0.00000 0.00000
												CHANNELS 3 Zrotation Xrotation Yrotation
												End site
												{
													OFFSET 0.00000 0.00000 0.00000
												}
											}
										}
									}
								}
							}
						}
					}
					JOINT pCube4
					{
						OFFSET 0.00000 10.91090 1.10792
						CHANNELS 3 Zrotation Xrotation Yrotation
						End site
						{
							OFFSET 0.00000 0.00000 0.00000
						}
					}
				}
			}
		}
	}
	JOINT RightUpLeg
	{
		OFFSET -9.98441 0.00000 0.00000
		CHANNELS 3 Zrotation Xrotation Yrotation
		JOINT RightLeg
		{
			OFFSET 0.00000 -42.11790 0.00000
			CHANNELS 3 Zrotation Xrotation Yrotation
			JOINT RightFoot
			{
				OFFSET 0.00000 -45.00020 -0.00001
				CHANNELS 3 Zrotation Xrotation Yrotation
				JOINT RightForeFoot
				{
					OFFSET 0.00000 -3.74820 0.00000
					CHANNELS 3 Zrotation Xrotation Yrotation
					JOINT RightToeBase
					{
						OFFSET 0.00000 0.06325 14.43120
						CHANNELS 3 Zrotation Xrotation Yrotation
						End site
						{
							OFFSET 0.00000 0.00000 0.00000
						}
					}
				}
			}
		}
	}
	JOINT LeftUpLeg
	{
		OFFSET 9.98441 0.00000 0.00000
		CHANNELS 3 Zrotation Xrotation Yrotation
		JOINT LeftLeg
		{
			OFFSET 0.00000 -42.11800 0.00000
			CHANNELS 3 Zrotation Xrotation Yrotation
			JOINT LeftFoot
			{
				OFFSET 0.00000 -45.00070 0.00000
				CHANNELS 3 Zrotation Xrotation Yrotation
				JOINT LeftForeFoot
				{
					OFFSET 0.00000 -3.74824 0.00000
					CHANNELS 3 Zrotation Xrotation Yrotation
					JOINT LeftToeBase
					{
						OFFSET 0.00000 0.06325 14.43110
						CHANNELS 3 Zrotation Xrotation Yrotation
						End site
						{
							OFFSET 0.00000 0.00000 0.00000
						}
					}
				}
			}
		}
	}
}
MOTION
Frames: 4
Frame Time: 0.050000
0.0030130160132153796 0.02971077553693871 -0.03519389599674272 0.0016919632335546477 0.02682196821454946 0.01944693182391394 1.3476533070258747 4.018732065267872 -1.5209126179503043 -0.5756269757347867 4.059614322032361 0.2881783467561648 -0.5120804790846496 -1.351184714791453 0.6495008149518632 -1.3377771370142706 -0.6529027583292459 -0.35270678189367743 -1.1740008961024893 12.8657373267096 1.325568882659882 0.3745027701083409 -2.0445035521437793 3.2722601066159163 0.21476341191206394 -19.149124513774545 0.23397375510405033 -4.870482425826339 2.0272749812105793 -16.324282667945994 78.79256692380683 9.48732297424066 -1.6603970782841981 0.5094196130472688 3.1899348689915343 52.810012838215656 25.47232503977604 -0.3411133080165128 -2.693367390564729 4.5103083827835615 -0.15343925477846618 -1.5750635472546726 0.01758641758636594 0.012657360053738341 -56.2164235504448 -0.034071719840427374 0.020373708851041204 -56.27053030489255 -38.79410290987761 0.042900732509756526 0.004877894102803535 0.03052408763874166 -0.026461692772382573 -0.037307835439136225 0.03574818974740499 -0.00504323868601327 -0.03925782726274966 -36.646358069669894 0.03688591745869365 0.0032032254829495264 -0.028184609213236865 0.03260092274632338 0.030644215162596616 -0.043607888360633396 -0.0019779736697305233 -0.028436382809734182 -19.755564284976092 -0.02086380404345399 -0.0054652252602404375 -0.0007322954490109872 -0.019560958881051957 0.0044528247653146955 0.014965893871654493 0.029250242500445132 -0.014756946469485154 24.04229568149914 -0.04765762897812387 0.0012858097906746507 28.817307377022406 -0.013238700278624433 -0.035793142592893165 28.856607269559117 0.03157175360108292 -0.028725590522748357 8.232942903934951 2.0296138058620987 14.962688315272677 -78.4694090644899 16.31751900105867 -12.10210251241357 -1.286523326531506 12.067967558512823 -48.171734932793804 -27.28868159367256 8.362588517691913 -3.914859656524585 -0.4247015353251579 0.11429687737667601 -8.125620624624702 -0.0179645409631401 0.044444282924368125 44.59192021049409 -0.002982110015907933 0.01819694466386126 44.55151901141356 12.432475904018547 -0.02463169249814251 0.044778993119444915 0.04851903885813349 -0.026686008719068673 0.009851822269042555 0.03522187046889878 -0.007315449458686281 0.002427204772812344 11.128142708137656 0.02221129800268287 -0.007140063534467717 -0.02772388680700721 -0.015995102584567288 0.009822739401027653 0.008157088303085628 -0.049738927477829945 -0.017284462117687357 4.729572325280928 0.012379865580814197 -0.002950314949448961 -0.0277227482267604 0.018919658641113116 -0.027218534946317246 -0.011172757080577213 0.007261840876026772 -0.02665203073234869 -5.55968154267015 -0.0033077637765264916 0.03127826207772454 -6.693460502815098 0.015136088935078375 0.0040048781725171585 -6.7201784367695145 0.04040740365333402 -0.00533977207898087 0.03847650335659572 -0.02310228730715657 0.049780646654755116 7.997348393181675 3.4632334708664434 -19.198264872108965 0.04198745051170159 10.369293325973947 -0.030876634618670056 -5.6230522346884 -15.620898966753181 3.14471858282438 0.020467707102529695 0.013118038341535344 0.011588501243359958 0.022625756195021784 4.699663777678951 -0.013321387887193692 12.441126505562641 -8.247186811358954 6.871932997351225 0.017559270393124556 46.388166513725125 -0.006655085010631133 -4.2868482211747665 -14.704807417628423 -3.856877047979026 -0.030994987895956495 0.034117607161750226 0.005015196350959329 -0.030248844839022255 -10.745890863391473 -0.03315094819807661 
-0.01961490544178164 -0.030765085616078935 0.03193219027748007 0.001780993763554149 -0.03460884551159647 -0.0008392385237218213 0.9418605105292659 4.055192019147691 -1.5342393466202489 -0.5275654749800893 4.086975102728639 0.285236098525272 -0.5805235596305824 -1.464311919163734 0.7769764639691903 -1.3796304758774827 -0.7263156468074606 -0.34606234202119057 -1.190632974564646 12.83002811921105 1.2848906283779609 0.36295351276055404 -2.1683901616226584 3.0226704266893023 0.26720892749081687 -19.313625446097127 0.19772839677639664 -4.599559343673168 1.991750503223355 -16.328298392709037 78.5014311262565 9.562769549061166 -1.6440424557306852 -0.6105783474255013 3.182211083335245 54.20162851929234 26.435294493213217 -0.34306355390654364 -2.842672605470283 4.576531315351752 -0.1169568368333252 -1.6139076416712985 -0.040199971259474984 0.0032849775750395135 -56.27448220287516 -0.04088465604206023 0.00104799615026444 -56.20149578882964 -38.80943102550232 0.009408088193994161 0.013234754297592577 -0.032051092567338554 0.04743703015064215 -0.006192640006579294 0.03626402890906311 -0.014999211598344244 0.04698424550568482 -36.69800409620224 -0.023504874368670877 -0.02398354998097075 -0.0031555776373866835 0.034504430542828625 0.028076254960444278 -0.029729681244209265 -0.031046606148112 0.023671294187621122 -19.777079658289452 0.03504643118677015 0.03935939566317491 0.0398403442974973 -0.024139330724138392 0.016511954026899294 -0.04355171267468757 -0.01295678019931 -0.008396573950202805 24.079312095944356 0.008721475864585158 -0.011620182829146355 28.843623874775982 0.04017971987641728 0.006501331242687328 28.872897087310083 -0.005346001391192379 -0.0012629146283014904 7.860182534334508 1.9391261540414242 15.0359359457602 -78.77104954563825 15.897558225412487 -11.317233781479096 -0.42085058242186835 12.063332655431282 -47.11680960647024 -28.180404485019327 9.22165116053974 -4.548764408526067 -0.4559266009960913 0.032913086445742874 -8.126014459517847 -0.005437074618670197 0.005781796868272245 44.55947027539316 -0.03324353207845349 -0.01648573277997319 44.6058602957911 12.50832839816914 -0.00041768222638200397 0.003661349349088702 -0.021667198638360332 0.007706600577461793 -0.02700246632444168 0.020546750622093657 -0.03504138116512019 -0.022059602242713267 11.08937066994022 -0.03742122824915687 -0.03213824618715071 -0.03327885447810637 0.03882531972572399 -0.013748994356547374 0.029148068226302448 0.038792880884577816 0.0009652295237921606 4.793586480533222 0.042067619847828294 0.04578749679228447 0.014223267544664837 0.048036685062664605 -0.023606299053860413 0.005533921505996051 0.03623742471632598 0.028748356097324155 -5.596700821894426 -0.008047126859171718 0.04325072525438069 -6.695407743734821 -0.002796952262384353 0.02434255894132348 -6.70496010227401 0.04529584593202633 0.026480307561298082 0.04583527348669585 -0.023688417720581344 0.014978656420842916 8.034323040214712 3.542967666084513 -19.239789128002386 0.017080710454354525 10.381723476813367 0.028770208638020472 -5.63014413701145 -15.66252860720274 3.1997873958344227 -0.018544936089788924 -0.0006048468383057745 -0.019397826696552798 0.003199310083491536 4.672440707733524 -0.0035756165974802122 12.462387713437733 -8.212881786044367 6.855789262424264 0.031383705338118864 46.37875562641331 0.009939770831625472 -4.3661919863832575 -14.766912412696406 -3.8402964152221313 0.041952324384055516 0.041307774769391736 0.035781849449723076 -0.02103288245436349 -10.727702276704251 -0.005598526403493904 
0.027389645074945974 0.0005439359385950504 -0.025383273851302558 -0.018235859708253074 -0.012868678592221683 0.010374107048468598 0.5870892940750715 4.051667819789671 -1.4173890614274713 -0.4823866443420842 4.153865686388525 0.35843542871037115 -0.5975857050712441 -1.489506933870658 0.7732964840691918 -1.4503759632726418 -0.7518146572926856 -0.29232225714631604 -1.1662140822463645 12.78111991486217 1.2757351302046978 0.3532769313745322 -2.340178409596952 2.890961765184688 0.29262894564638386 -19.512765421937676 0.15350442748831178 -4.426058458282123 1.8832245130223777 -16.278073740757833 78.36000824514684 9.842464016854935 -1.7212584398524995 -1.5391460230511278 2.911221626751675 55.63385416668218 27.144845427737877 -0.2971118622700369 -3.028513002699664 4.522329644133582 -0.12095530427563189 -1.582048932503237 -0.03841814841422608 -0.0024790729997816122 -56.23596662423499 0.0262749300404422 -0.04604229170039149 -56.28088038095563 -38.805486344242816 0.04813692041625383 0.03334916821129114 0.018593646613215522 0.007545758950109383 -0.042900131294359406 0.026579876699242427 0.02308284099330078 -0.041659382322255425 -36.739712908375175 0.005098359680689018 -0.027440324159785024 0.03456985722706236 -0.011855282472585525 0.00085946987424954 0.033993881566140104 0.03958572052520335 0.0054217579788594945 -19.807369862614994 -0.026885711366938417 0.008432456284599979 0.010394837415756792 0.003721196812444492 0.004545709583079972 0.01759041072135548 -0.008119906643218459 -0.02631736218459955 24.030032658599286 -0.03477966465177471 0.03618290176149705 28.874226461560884 -0.005614083040118381 -0.012052499855261245 28.86102690942324 0.0006355885901325116 -0.04169649594273081 7.593420375575594 1.9718288998337643 15.060034543572707 -78.96031586634302 16.002176247217882 -10.698104605824811 -0.11008346419410397 11.258771038747106 -46.52013543218916 -28.878383636024367 9.702016772280851 -4.9052318251382525 -0.43676918343416277 0.04046931997777402 -8.093080349553722 0.001630750223218926 0.0471038168328963 44.55275546531376 0.020963968518577878 -0.0028188367856143907 44.61473147204788 12.434417044554346 -0.003400531021652356 0.019773750980551567 -0.014511858974787031 0.021018869850957057 -0.00767174232964609 -0.02174391731892757 -0.0039033051160889914 0.03197060289646381 11.140515240685808 -0.03859296950739609 -0.03556548110781929 0.009839840238252257 0.04807698152403274 0.04039971667255174 -0.03498781021263326 -0.03456466332981009 0.011442199780544051 4.782797426411613 -0.026700817458434507 -0.021852777405008145 0.020085520799333498 0.013273422317182782 0.02730094289204115 0.004501980246205246 -0.0313824771204848 0.01489731807310082 -5.606820617325188 0.026084364206072838 0.027881404686395286 -6.722018909064677 0.04230332784561416 -0.004161845685493208 -6.700236862998718 0.009979601512776893 0.017001974549316453 -0.04879523227681713 0.013036686458567346 0.00109639775254388 8.025301906309963 3.522597384980136 -19.211130493356084 0.0037880738845081393 10.439704170043987 0.019758133543587107 -5.659148534167358 -15.612901191574112 3.200866148474863 -0.04694747065764393 0.03724504243416927 0.035044510013217636 0.014971379954765274 4.7408802480380325 -0.005641978810704895 12.474886936076816 -8.222477665964297 6.852569832921523 0.028781401314632072 46.37535190143564 -0.04689610769019696 -4.36287020474597 -14.787212597967327 -3.8488678244778876 0.026149428960631733 -0.030389582394088146 -0.03680204577315441 -0.006490320483572762 -10.729206311269182 -0.04914554509736446 
0.017013775302729146 -0.04311377648217868 0.04541211595509167 0.0324929229514713 -0.02294962675566084 -0.0497934064888012 0.0004888499218956809 4.102993275321232 -1.3402961876513166 -0.48813769164269866 4.121819200434827 0.2707981776010526 -0.6545212161797557 -1.4873464589519096 0.7717649969968409 -1.5043621250782133 -0.7726002970647574 -0.3251774744237027 -1.1408742447206754 12.727182840052283 1.2938396097760987 0.37613464742794467 -2.460531019832376 2.900414907609026 0.3631854683734019 -19.552538841180017 0.1538114494874737 -3.995713566737635 1.8264747187641202 -16.146584188892923 78.04934253811584 9.624880589198387 -1.8596674710491976 -2.1807620801865424 3.610476482134071 55.87496891001244 27.87848301848635 -0.29399507100113115 -2.9002518556662547 4.537742393935043 -0.10783215426090759 -1.5689459043153637 -0.025173218595759408 0.023268220672706355 -56.22168592121904 -0.006683114273897643 0.03353044207738787 -56.256621045366316 -38.782437431728006 0.042878267671526846 0.014132624938208438 -0.023730511607679868 0.021715050606885628 0.04206209674277976 -0.037953644242082765 -0.025175236062313873 0.02829771494901282 -36.7303358879023 0.04264045615072345 -0.008171773920965826 0.010657496941834184 0.01895411874904432 -0.027522072051647025 0.03955399417607337 -0.02885588229355594 -0.010944422837226212 -19.74135512483559 -0.009147829477708884 -0.03269927758392325 -0.035405268186589345 -0.01265391123433097 -0.033286683370789466 -0.03176634901298245 0.0027245859161290496 0.023749521576055966 24.044221801336782 0.023051079364893954 0.004190792113514301 28.832602862574248 -0.024841603919193645 -0.0483474958855384 28.841628447623975 0.010416070787174101 -0.0368753505776737 7.151281486060132 1.8759583913589364 14.95815959304634 -79.11167064686846 15.772567178492185 -9.908453828558406 0.9263716692626274 11.425922659228727 -45.162538075884974 -29.51170988769045 10.836229436830397 -5.855454954820184 -0.4266102514816109 0.11352251106680641 -8.113549251071857 0.02383161092841718 0.03660817680073797 44.59372531109887 -0.031179441370909052 -0.016483153735815936 44.588328243070166 12.433825865608304 0.0027137471617084182 -0.018284729811927844 0.04222254223343565 -0.033607222701858 0.010644383696172747 -0.017001185389997273 -0.0199927483754241 -0.008177086435245678 11.092009856020018 0.010795114673484924 0.0213510782684148 0.012705059590021855 0.03239159460099676 0.03235718803599601 -0.01691175140041495 0.007061339113107891 -0.0014097596538107699 4.731353590825602 -0.012390579726333424 0.0459356455461762 0.01143201178659966 0.025320176358055137 0.006610206079846908 0.030765892272074536 0.02694532799847246 -0.01468199782388754 -5.590665980373189 -0.037099323934154924 0.03470165851251377 -6.689314720535468 0.045121978832484755 0.038927876021942254 -6.698839701564862 0.01891828924808294 0.03182727181248558 -0.008778637517929181 0.017866089486383557 0.0018404185140399004 8.08036822208423 3.4958511534304777 -19.17865102691376 -0.046759873892759395 10.35338522669075 0.059182726056133186 -5.607539563725497 -15.646930236574471 3.186897253913139 -0.020182716917685892 -0.0037869269428120428 -0.035310185516647594 0.028965094437915055 4.706325819596508 -0.007914593453634357 12.434583072221635 -8.260404435993033 6.90943863375163 0.038731286940498225 46.38013946011915 -0.013268257481178337 -4.2867323694697985 -14.71780351315944 -3.8125269378786872 -0.03614862364094818 0.02567190507584378 0.038018342191782496 0.001185624864985476 -10.748304457362902 0.024696672350316234 
